<svg width="50" height="50" viewBox="0 0 50 50" fill="none" xmlns="http://www.w3.org/2000/svg">
<path d="M8.5 10C8.5 5.30558 12.3056 1.5 17 1.5H33C37.6944 1.5 41.5 5.30558 41.5 10V21.5H8.5V10Z" stroke="#152C5B" stroke-width="3"/>
<rect x="13.5" y="13.5" width="10" height="8" rx="1.5" stroke="#FF498B" stroke-width="3"/>
<rect x="26.5" y="13.5" width="10" height="8" rx="1.5" stroke="#FF498B" stroke-width="3"/>
<path d="M1.5 31C1.5 26.3056 5.30558 22.5 10 22.5H40C44.6944 22.5 48.5 26.3056 48.5 31V37.5H1.5V31Z" stroke="#152C5B" stroke-width="3"/>
<line x1="5" y1="38" x2="5" y2="46" stroke="#152C5B" stroke-width="2" stroke-linecap="round"/>
<line x1="6" y1="42" x2="44" y2="42" stroke="#152C5B" stroke-width="2" stroke-linecap="round"/>
<line x1="45" y1="38" x2="45" y2="46" stroke="#152C5B" stroke-width="2" stroke-linecap="round"/>
</svg>
