<svg width="44" height="39" viewBox="0 0 44 39" fill="none" xmlns="http://www.w3.org/2000/svg">
<path d="M3.78961 18.9201C4.28618 16.9113 6.08878 15.5 8.15812 15.5H36.8104C39.0525 15.5 40.9526 17.1505 41.2662 19.3706L42.2732 26.5H1.91593L3.78961 18.9201Z" stroke="#152C5B" stroke-width="3"/>
<path d="M6 37.5C5.17157 37.5 4.5 36.8284 4.5 36L4.5 28C4.5 27.1716 5.17157 26.5 6 26.5H7C7.82843 26.5 8.5 27.1716 8.5 28V36C8.5 36.8284 7.82843 37.5 7 37.5L6 37.5Z" stroke="#152C5B" stroke-width="3"/>
<path d="M10 7V15" stroke="#152C5B" stroke-width="2"/>
<path d="M12.5 7.5L8.5 7.5V1.5H12.5V7.5Z" stroke="#FF498B" stroke-width="3"/>
<path d="M34 7V15" stroke="#152C5B" stroke-width="2"/>
<path d="M36.5 7.5L32.5 7.5V1.5H36.5V7.5Z" stroke="#FF498B" stroke-width="3"/>
<path d="M36 37.5C35.1716 37.5 34.5 36.8284 34.5 36V28C34.5 27.1716 35.1716 26.5 36 26.5H37C37.8284 26.5 38.5 27.1716 38.5 28V36C38.5 36.8284 37.8284 37.5 37 37.5L36 37.5Z" stroke="#152C5B" stroke-width="3"/>
</svg>
