<svg width="35" height="47" viewBox="0 0 35 47" fill="none" xmlns="http://www.w3.org/2000/svg">
<path d="M33.5 39.5C33.5 40.0283 33.2565 40.657 32.5571 41.3657C31.8514 42.0808 30.7558 42.7936 29.2835 43.4246C26.3443 44.6842 22.1792 45.5 17.5 45.5C12.8208 45.5 8.65573 44.6842 5.71651 43.4246C4.24423 42.7936 3.14862 42.0808 2.44286 41.3657C1.74346 40.657 1.5 40.0283 1.5 39.5C1.5 38.9717 1.74346 38.343 2.44286 37.6343C3.14862 36.9192 4.24423 36.2064 5.71651 35.5754C8.65573 34.3158 12.8208 33.5 17.5 33.5C22.1792 33.5 26.3443 34.3158 29.2835 35.5754C30.7558 36.2064 31.8514 36.9192 32.5571 37.6343C33.2565 38.343 33.5 38.9717 33.5 39.5Z" stroke="#152C5B" stroke-width="3"/>
<path d="M30 12.3457C30 15.3907 28.5326 22.0291 26.0542 27.9584C24.8241 30.9014 23.4031 33.5246 21.8977 35.3761C20.3395 37.2924 19.0111 38 18 38C16.9889 38 15.6605 37.2924 14.1023 35.3761C12.5969 33.5246 11.1759 30.9014 9.9458 27.9584C7.46744 22.0291 6 15.3907 6 12.3457C6 6.86085 11.1288 2 18 2C24.8712 2 30 6.86085 30 12.3457Z" fill="white" stroke="#152C5B" stroke-width="4"/>
<circle cx="18" cy="16" r="5" stroke="#FF498B" stroke-width="3" stroke-linecap="round"/>
</svg>
