<svg width="50" height="34" viewBox="0 0 50 34" fill="none" xmlns="http://www.w3.org/2000/svg">
<mask id="path-1-inside-1" fill="white">
<path fill-rule="evenodd" clip-rule="evenodd" d="M19.5276 0C18.6257 0 17.8354 0.603642 17.5981 1.47376L16.9091 4H8C3.58172 4 0 7.58172 0 12V26C0 30.4183 3.58172 34 8 34H42C46.4183 34 50 30.4183 50 26V12C50 7.58172 46.4183 4 42 4H33.4091L32.8538 1.55676C32.6469 0.646181 31.8373 0 30.9035 0H19.5276Z"/>
</mask>
<path d="M17.5981 1.47376L14.7038 0.68441L14.7038 0.684413L17.5981 1.47376ZM16.9091 4V7H19.2005L19.8034 4.78935L16.9091 4ZM33.4091 4L30.4837 4.66486L31.0144 7H33.4091V4ZM32.8538 1.55676L35.7792 0.891894L35.7792 0.891889L32.8538 1.55676ZM20.4924 2.26312C20.3737 2.69818 19.9785 3 19.5276 3V-3C17.2728 -3 15.297 -1.4909 14.7038 0.68441L20.4924 2.26312ZM19.8034 4.78935L20.4924 2.26312L14.7038 0.684413L14.0148 3.21065L19.8034 4.78935ZM8 7H16.9091V1H8V7ZM3 12C3 9.23858 5.23858 7 8 7V1C1.92487 1 -3 5.92487 -3 12H3ZM3 26V12H-3V26H3ZM8 31C5.23858 31 3 28.7614 3 26H-3C-3 32.0751 1.92487 37 8 37V31ZM42 31H8V37H42V31ZM47 26C47 28.7614 44.7614 31 42 31V37C48.0751 37 53 32.0751 53 26H47ZM47 12V26H53V12H47ZM42 7C44.7614 7 47 9.23858 47 12H53C53 5.92487 48.0751 1 42 1V7ZM33.4091 7H42V1H33.4091V7ZM29.9284 2.22162L30.4837 4.66486L36.3345 3.33514L35.7792 0.891894L29.9284 2.22162ZM30.9035 3C30.4366 3 30.0319 2.67691 29.9284 2.22163L35.7792 0.891889C35.2618 -1.38455 33.238 -3 30.9035 -3V3ZM19.5276 3H30.9035V-3H19.5276V3Z" fill="#152C5B" mask="url(#path-1-inside-1)"/>
<circle cx="24.5" cy="18.5" r="6" stroke="#FF498B" stroke-width="3"/>
<line x1="35" y1="10" x2="42" y2="10" stroke="#152C5B" stroke-width="2" stroke-linecap="round"/>
</svg>
